<svg baseProfile="full" class="opstree" height="100%" id="pathtree-2" version="1.1" viewBox="-80.00 -22.50 434.00 285.00" width="100%" xmlns="http://www.w3.org/2000/svg" xmlns:ev="http://www.w3.org/2001/xml-events" xmlns:xlink="http://www.w3.org/1999/xlink"><defs><style type="text/css"><![CDATA[.opstree text, .movetree text {
    alignment-baseline: central;
    font-size: 10px;
    text-anchor: middle;
    font-family: Futura-CondensedMedium;
    font-weight: lighter;
    stroke: none !important;
}
.opstree .block text, .movetree .block text {
    alignment-baseline: central;
    font-size: 8px;
    text-anchor: middle;
    font-family: Futura-CondensedMedium;
    font-weight: lighter;
    stroke: none !important;
}
.opstree text.shadow {
    stroke-width: 3;
    stroke: white !important;
}
.opstree .left.label .shift text {
    text-anchor: end;
}
.opstree .right.label .shift text {
    text-anchor: start;
}
.opstree .block text, .movetree .block text {
    fill: white !important;
    stroke: none !important;
}
.opstree .block {
    stroke: none !important;
}
.opstree g.block:hover rect {
    opacity: 0.5;
}
.opstree .repex {
    fill: green;
    stroke: green;
}
.opstree .extend {
    fill: green;
    stroke: green;
}
.opstree .truncate {
    fill: green;
    stroke: green;
}
.opstree .new {
    fill: black;
    stroke: black;
}
.opstree .unknown {
    fill: gray;
    stroke: gray;
}
.opstree .hop {
    fill: green;
    stroke: green;
}
.opstree .correlation {
    fill: black;
    stroke: black;
}
.opstree .shooting.bw {
    fill: blue;
    stroke: blue;
}
.opstree .shooting.fw {
    fill: red;
    stroke: red;
}
.opstree .shooting.overlap {
    fill: #666;
    stroke: #666;
}
.opstree .reversal {
    fill: gold;
    stroke: gold;
}
.opstree .virtual {
    opacity: 0.1;
    fill:gray;
    stroke: none;
}
.opstree line {
    stroke-width: 2px;
}
.opstree .label {
    fill: black !important;
}
.opstree .h-connector {
    stroke-width: 0.1px;
    stroke-dasharray: 3 3;
}
.opstree .rejected {
    opacity: 0.25;
}
.opstree .level {
    opacity: 0.25;
}
.opstree .orange {
    fill: orange;
}
.tableline {
    fill: gray;
    opacity: 0.0;
}
.tableline:hover {
    opacity: 0.2;
}
.opstree .left.label g.shift {
    transform: translateX(-6px);
}
.opstree .right.label g.shift {
    transform: translateX(+6px);
}
.opstree .infobox text {
    text-anchor: start;
}
.opstree .shade {
    stroke: none;
}

.movetree .label .shift {
    transform: translateX(-18px);
}

.movetree .label text {
    text-anchor: end;
}
.movetree .v-connector {
    stroke: black;
}
.movetree .v-hook {
    stroke: black;
}
.movetree .h-connector {
    stroke: black;
}
.movetree .ensembles .head .shift {
    transform: translateY(0px) rotate(270deg) ;
}
.movetree .ensembles .head text {
    text-anchor: start;
}
.movetree .connector.input {
    fill: blue;
}
.movetree .connector.output {
    fill: red;
}
.movetree .unknown {
    fill: #aaa;
    /*stroke: white;*/
}
]]></style></defs><g transform="scale(1.0)"><g class="tree" transform="translate(72,15)"><g class="trajectory-label"><g class="unknown left label" transform="translate(0,0)"><g class="shift"><text x="0" y="0">+</text></g></g><g class="shooting left label" transform="translate(-10,15)"><g class="shift"><text x="0" y="0">B</text></g></g><g class="shooting left label" transform="translate(-10,30)"><g class="shift"><text x="0" y="0">B</text></g></g><g class="shooting left label" transform="translate(-10,45)"><g class="shift"><text x="0" y="0">B</text></g></g><g class="shooting right label" transform="translate(110,60)"><g class="shift"><text x="0" y="0">F</text></g></g><g class="shooting left label" transform="translate(-30,75)"><g class="shift"><text x="0" y="0">B</text></g></g><g class="shooting right label" transform="translate(110,90)"><g class="shift"><text x="0" y="0">F</text></g></g><g class="shooting left label" transform="translate(-30,105)"><g class="shift"><text x="0" y="0">B</text></g></g><g class="shooting left label" transform="translate(-10,120)"><g class="shift"><text x="0" y="0">B</text></g></g><g class="shooting right label" transform="translate(110,135)"><g class="shift"><text x="0" y="0">F</text></g></g><g class="shooting left label" transform="translate(-20,150)"><g class="shift"><text x="0" y="0">B</text></g></g><g class="shooting left label" transform="translate(0,165)"><g class="shift"><text x="0" y="0">B</text></g></g><g class="shooting right label" transform="translate(110,180)"><g class="shift"><text x="0" y="0">F</text></g></g><g class="shooting left label" transform="translate(-30,195)"><g class="shift"><text x="0" y="0">B</text></g></g><g class="shooting left label" transform="translate(-20,210)"><g class="shift"><text x="0" y="0">B</text></g></g><g class="shooting right label" transform="translate(240,225)"><g class="shift"><text x="0" y="0">F</text></g></g><g class="shooting right label" transform="translate(170,240)"><g class="shift"><text x="0" y="0">F</text></g></g></g><g class="shooting-hooks"><line class="shooting bw connection v-connector" x1="25.0" x2="25.0" y1="0.0" y2="15.0" /><line class="shooting bw connection v-connector" x1="45.0" x2="45.0" y1="0.0" y2="30.0" /><line class="shooting bw connection v-connector" x1="-5.0" x2="-5.0" y1="30.0" y2="45.0" /><line class="shooting fw connection v-connector" x1="85.0" x2="85.0" y1="0.0" y2="60.0" /><line class="shooting bw connection v-connector" x1="25.0" x2="25.0" y1="30.0" y2="75.0" /><line class="shooting fw connection v-connector" x1="85.0" x2="85.0" y1="0.0" y2="90.0" /><line class="shooting bw connection v-connector" x1="5.0" x2="5.0" y1="75.0" y2="105.0" /><line class="shooting bw connection v-connector" x1="45.0" x2="45.0" y1="0.0" y2="120.0" /><line class="shooting fw connection v-connector" x1="85.0" x2="85.0" y1="0.0" y2="135.0" /><line class="shooting bw connection v-connector" x1="45.0" x2="45.0" y1="0.0" y2="150.0" /><line class="shooting bw connection v-connector" x1="25.0" x2="25.0" y1="150.0" y2="165.0" /><line class="shooting fw connection v-connector" x1="95.0" x2="95.0" y1="135.0" y2="180.0" /><line class="shooting bw connection v-connector" x1="45.0" x2="45.0" y1="0.0" y2="195.0" /><line class="shooting bw connection v-connector" x1="25.0" x2="25.0" y1="195.0" y2="210.0" /><line class="shooting fw connection v-connector" x1="55.0" x2="55.0" y1="0.0" y2="225.0" /><line class="shooting fw connection v-connector" x1="105.0" x2="105.0" y1="225.0" y2="240.0" /></g><g class="snapshot-blocks"><g class="unknown new block"><rect height="9.0" width="120.0" x="-5.0" y="-4.5" /><circle cx="115.0" cy="0" r="0.0" /><text x="55.0" y="0" /></g><g class="shooting bw block"><rect height="9.0" width="40.0" x="-15.0" y="10.5" /><circle cx="25.0" cy="15" r="0.0" /><text x="5.0" y="15" /></g><g class="shooting bw block"><rect height="9.0" width="60.0" x="-15.0" y="25.5" /><circle cx="45.0" cy="30" r="0.0" /><text x="15.0" y="30" /></g><g class="shooting bw block"><rect height="9.0" width="10.0" x="-15.0" y="40.5" /><circle cx="-5.0" cy="45" r="0.0" /><text x="-10.0" y="45" /></g><g class="shooting fw block"><rect height="9.0" width="30.0" x="85.0" y="55.5" /><circle cx="115.0" cy="60" r="0.0" /><text x="100.0" y="60" /></g><g class="shooting bw block"><rect height="9.0" width="60.0" x="-35.0" y="70.5" /><circle cx="25.0" cy="75" r="0.0" /><text x="-5.0" y="75" /></g><g class="shooting fw block"><rect height="9.0" width="30.0" x="85.0" y="85.5" /><circle cx="115.0" cy="90" r="0.0" /><text x="100.0" y="90" /></g><g class="shooting bw block"><rect height="9.0" width="40.0" x="-35.0" y="100.5" /><circle cx="5.0" cy="105" r="0.0" /><text x="-15.0" y="105" /></g><g class="shooting bw block"><rect height="9.0" width="60.0" x="-15.0" y="115.5" /><circle cx="45.0" cy="120" r="0.0" /><text x="15.0" y="120" /></g><g class="shooting fw block"><rect height="9.0" width="30.0" x="85.0" y="130.5" /><circle cx="115.0" cy="135" r="0.0" /><text x="100.0" y="135" /></g><g class="shooting bw block"><rect height="9.0" width="70.0" x="-25.0" y="145.5" /><circle cx="45.0" cy="150" r="0.0" /><text x="10.0" y="150" /></g><g class="shooting bw block"><rect height="9.0" width="30.0" x="-5.0" y="160.5" /><circle cx="25.0" cy="165" r="0.0" /><text x="10.0" y="165" /></g><g class="shooting fw block"><rect height="9.0" width="20.0" x="95.0" y="175.5" /><circle cx="115.0" cy="180" r="0.0" /><text x="105.0" y="180" /></g><g class="shooting bw block"><rect height="9.0" width="80.0" x="-35.0" y="190.5" /><circle cx="45.0" cy="195" r="0.0" /><text x="5.0" y="195" /></g><g class="shooting bw block"><rect height="9.0" width="50.0" x="-25.0" y="205.5" /><circle cx="25.0" cy="210" r="0.0" /><text x="0.0" y="210" /></g><g class="shooting fw block"><rect height="9.0" width="190.0" x="55.0" y="220.5" /><circle cx="245.0" cy="225" r="0.0" /><text x="150.0" y="225" /></g><g class="shooting fw block"><rect height="9.0" width="70.0" x="105.0" y="235.5" /><circle cx="175.0" cy="240" r="0.0" /><text x="140.0" y="240" /></g></g></g><g class="legend"><g class="legend-correlation" transform="translate(0)"><g class="head label" transform="translate(0,0)"><g class="shift"><text x="0" y="0">cor</text></g></g><g class="correlation v-region"><line x1="0" x2="0" y1="7.5" y2="262.5" /><circle cx="0" cy="7.5" r="2.24" /><line x1="-6.4" x2="6.4" y1="7.5" y2="7.5" /><text x="-6.4" y="135.0" /></g></g><g class="legend-step" transform="translate(-32)"><g class="head label" transform="translate(0,0)"><g class="shift"><text x="0" y="0">step</text></g></g><g class="label" transform="translate(0,15)"><g class="shift"><text x="0" y="0">0</text></g></g><g class="label" transform="translate(0,30)"><g class="shift"><text x="0" y="0">2</text></g></g><g class="label" transform="translate(0,45)"><g class="shift"><text x="0" y="0">3</text></g></g><g class="label" transform="translate(0,60)"><g class="shift"><text x="0" y="0">5</text></g></g><g class="label" transform="translate(0,75)"><g class="shift"><text x="0" y="0">6</text></g></g><g class="label" transform="translate(0,90)"><g class="shift"><text x="0" y="0">7</text></g></g><g class="label" transform="translate(0,105)"><g class="shift"><text x="0" y="0">9</text></g></g><g class="label" transform="translate(0,120)"><g class="shift"><text x="0" y="0">11</text></g></g><g class="label" transform="translate(0,135)"><g class="shift"><text x="0" y="0">13</text></g></g><g class="label" transform="translate(0,150)"><g class="shift"><text x="0" y="0">16</text></g></g><g class="label" transform="translate(0,165)"><g class="shift"><text x="0" y="0">18</text></g></g><g class="label" transform="translate(0,180)"><g class="shift"><text x="0" y="0">19</text></g></g><g class="label" transform="translate(0,195)"><g class="shift"><text x="0" y="0">20</text></g></g><g class="label" transform="translate(0,210)"><g class="shift"><text x="0" y="0">23</text></g></g><g class="label" transform="translate(0,225)"><g class="shift"><text x="0" y="0">24</text></g></g><g class="label" transform="translate(0,240)"><g class="shift"><text x="0" y="0">25</text></g></g><g class="label" transform="translate(0,255)"><g class="shift"><text x="0" y="0">28</text></g></g></g></g><g class="hovering-blocks"><rect class="tableline" height="13.5" width="434.0" x="-80.0" y="8.25" /><rect class="tableline" height="13.5" width="434.0" x="-80.0" y="23.25" /><rect class="tableline" height="13.5" width="434.0" x="-80.0" y="38.25" /><rect class="tableline" height="13.5" width="434.0" x="-80.0" y="53.25" /><rect class="tableline" height="13.5" width="434.0" x="-80.0" y="68.25" /><rect class="tableline" height="13.5" width="434.0" x="-80.0" y="83.25" /><rect class="tableline" height="13.5" width="434.0" x="-80.0" y="98.25" /><rect class="tableline" height="13.5" width="434.0" x="-80.0" y="113.25" /><rect class="tableline" height="13.5" width="434.0" x="-80.0" y="128.25" /><rect class="tableline" height="13.5" width="434.0" x="-80.0" y="143.25" /><rect class="tableline" height="13.5" width="434.0" x="-80.0" y="158.25" /><rect class="tableline" height="13.5" width="434.0" x="-80.0" y="173.25" /><rect class="tableline" height="13.5" width="434.0" x="-80.0" y="188.25" /><rect class="tableline" height="13.5" width="434.0" x="-80.0" y="203.25" /><rect class="tableline" height="13.5" width="434.0" x="-80.0" y="218.25" /><rect class="tableline" height="13.5" width="434.0" x="-80.0" y="233.25" /><rect class="tableline" height="13.5" width="434.0" x="-80.0" y="248.25" /></g></g></svg>